<?xml version="1.0" standalone="no"?>
<!DOCTYPE svg PUBLIC "-//W3C//DTD SVG 1.1//EN" "http://www.w3.org/Graphics/SVG/1.1/DTD/svg11.dtd" >
<svg xmlns="http://www.w3.org/2000/svg">
<metadata>Generated by IcoMoon</metadata>
<defs>
<font id="icomoon" horiz-adv-x="1024">
<font-face units-per-em="1024" ascent="960" descent="-64" />
<missing-glyph horiz-adv-x="1024" />
<glyph unicode="&#x20;" horiz-adv-x="512" d="" />
<glyph unicode="&#xe600;" glyph-name="manager" d="M512 832c-124.8 0-224-99.2-224-224 0-76.8 38.4-144 96-185.6-131.2-51.2-224-179.2-224-326.4h64c0 140.8 102.4 259.2 236.8 281.6l19.2-57.6h64l19.2 57.6c134.4-25.6 236.8-140.8 236.8-281.6h64c0 147.2-92.8 275.2-224 326.4 57.6 41.6 96 108.8 96 185.6 0 124.8-99.2 224-224 224zM512 768c89.6 0 160-70.4 160-160s-70.4-160-160-160-160 70.4-160 160 70.4 160 160 160zM480 288l-32-192h128l-32 192h-64z" />
<glyph unicode="&#xe601;" glyph-name="city-hall" d="M480 816v-67.2c-73.6-16-128-80-128-156.8v-179.2l-108.8-48-19.2-6.4v-278.4h256v96c0 19.2 12.8 32 32 32s32-12.8 32-32v-96h256v278.4l-19.2 6.4-108.8 48v179.2c0 76.8-54.4 140.8-128 156.8v67.2h-64zM512 688c41.6 0 76.8-25.6 89.6-64h-182.4c16 38.4 51.2 64 92.8 64zM416 560h192v-118.4l-83.2 35.2-12.8 6.4-12.8-6.4-83.2-35.2v118.4zM512 412.8l224-99.2v-169.6h-128v32c0 51.2-44.8 96-96 96s-96-44.8-96-96v-32h-128v169.6l224 99.2z" />
<glyph unicode="&#xe602;" glyph-name="city" d="M320 835.2l-224-112v-659.2h832v659.2l-224 112-192-96-192 96zM320 761.6l160-80v-556.8h-320v556.8l160 80zM704 761.6l160-80v-556.8h-320v556.8l160 80zM224 636.8v-64h64v64h-64zM352 636.8v-64h64v64h-64zM608 636.8v-64h64v64h-64zM736 636.8v-64h64v64h-64zM224 508.8v-64h64v64h-64zM352 508.8v-64h64v64h-64zM608 508.8v-64h64v64h-64zM736 508.8v-64h64v64h-64zM224 380.8v-64h64v64h-64zM352 380.8v-64h64v64h-64zM608 380.8v-64h64v64h-64zM736 380.8v-64h64v64h-64zM224 252.8v-64h64v64h-64zM352 252.8v-64h64v64h-64zM608 252.8v-64h64v64h-64zM736 252.8v-64h64v64h-64z" />
<glyph unicode="&#xe603;" glyph-name="people" d="M512 832c-70.4 0-128-57.6-128-128 0-32 12.8-64 35.2-86.4-12.8-6.4-25.6-12.8-35.2-22.4-9.6 60.8-60.8 108.8-124.8 108.8-70.4 0-128-57.6-128-128 0-35.2 12.8-64 35.2-89.6-9.6-3.2-16-9.6-25.6-16-44.8-35.2-76.8-89.6-76.8-153.6h64c0 41.6 19.2 80 51.2 102.4 22.4 16 48 25.6 76.8 25.6 19.2 0 38.4-6.4 57.6-12.8l35.2-16 9.6 38.4c16 70.4 80 121.6 153.6 121.6s137.6-51.2 153.6-121.6l9.6-38.4 35.2 19.2c16 9.6 35.2 12.8 57.6 12.8 70.4 0 128-57.6 128-128h64c0 73.6-41.6 134.4-99.2 166.4 22.4 22.4 35.2 54.4 35.2 89.6 0 70.4-57.6 128-128 128-64 0-115.2-48-124.8-108.8-12.8 9.6-22.4 16-35.2 22.4 22.4 22.4 35.2 54.4 35.2 86.4-3.2 70.4-60.8 128-131.2 128zM512 768c35.2 0 64-28.8 64-64s-28.8-64-64-64-64 28.8-64 64 28.8 64 64 64zM256 640c35.2 0 64-28.8 64-64s-28.8-64-64-64-64 28.8-64 64 28.8 64 64 64zM768 640c35.2 0 64-28.8 64-64s-28.8-64-64-64-64 28.8-64 64 28.8 64 64 64zM512 448c-70.4 0-128-57.6-128-128 0-35.2 12.8-64 35.2-89.6-57.6-32-99.2-96-99.2-166.4h64c0 70.4 57.6 128 128 128s128-57.6 128-128h64c0 73.6-41.6 134.4-99.2 166.4 22.4 22.4 35.2 54.4 35.2 89.6 0 70.4-57.6 128-128 128zM512 384c35.2 0 64-28.8 64-64s-28.8-64-64-64-64 28.8-64 64 28.8 64 64 64z" />
<glyph unicode="&#xe604;" glyph-name="flag" d="M160 832v-768h64v320h256v-96h384v448h-320v96h-384zM224 768h256v-320h-256v320zM544 672h256v-320h-256v320z" />
<glyph unicode="&#xe605;" glyph-name="star" d="M512 883.2l-28.8-67.2-102.4-233.6-252.8-25.6-70.4-6.4 54.4-48 188.8-169.6-54.4-249.6-16-70.4 64 35.2 220.8 128 220.8-128 64-35.2-16 70.4-54.4 249.6 188.8 169.6 54.4 48-70.4 6.4-252.8 25.6-102.4 233.6-35.2 67.2zM512 726.4l83.2-185.6 6.4-16 19.2-3.2 201.6-22.4-150.4-134.4-12.8-12.8 3.2-19.2 41.6-198.4-176 99.2-16 9.6-16-9.6-176-99.2 41.6 198.4 3.2 19.2-12.8 12.8-150.4 134.4 201.6 22.4 19.2 3.2 6.4 16 83.2 185.6z" />
<glyph unicode="&#xe606;" glyph-name="capital" d="M204.8 275.2v0-198.4h64v156.8h44.8v-156.8h64v156.8h44.8v-156.8h64v156.8h44.8v-156.8h64v156.8h44.8v-156.8h64v156.8h44.8v-156.8h64v192c0 3.2 0 3.2 0 6.4v67.2h35.2v64h-35.2c-12.8 124.8-102.4 230.4-220.8 262.4v160h-48v25.6c0 9.6-6.4 19.2-16 22.4 3.2 3.2 6.4 9.6 6.4 16 0 12.8-9.6 22.4-22.4 22.4s-22.4-9.6-22.4-22.4c0-6.4 3.2-12.8 6.4-16-9.6-3.2-16-12.8-16-22.4v-25.6h-54.4v-160c-118.4-35.2-208-137.6-220.8-262.4h-38.4v-64h38.4v-67.2zM476.8 780.8h64v-99.2h-64v99.2zM508.8 617.6c121.6 0 224-92.8 236.8-211.2h-476.8c16 121.6 118.4 211.2 240 211.2zM268.8 345.6h480v-44.8h-480v44.8zM64 44.8h896v-64h-896v64z" />
<glyph unicode="&#xe800;" glyph-name="map" d="M896 816l-44.8-19.2-211.2-89.6-243.2 92.8-12.8 3.2-12.8-6.4-224-96-19.2-6.4v-614.4l44.8 19.2 211.2 89.6 243.2-92.8 12.8-3.2 12.8 6.4 224 96 19.2 6.4v614.4zM384 732.8l243.2-92.8 12.8-3.2 12.8 6.4 179.2 76.8v-473.6l-192-83.2-243.2 92.8-12.8 3.2-12.8-6.4-179.2-76.8v473.6l192 83.2zM384 640c-35.2 0-64-28.8-64-64s28.8-64 64-64 64 28.8 64 64-28.8 64-64 64zM288 512c-19.2 0-32-12.8-32-32s12.8-32 32-32 32 12.8 32 32c0 19.2-12.8 32-32 32zM512 512c-19.2 0-32-12.8-32-32s12.8-32 32-32c19.2 0 32 12.8 32 32s-12.8 32-32 32zM736 512c-19.2 0-32-12.8-32-32s12.8-32 32-32 32 12.8 32 32c0 19.2-12.8 32-32 32zM288 416c-19.2 0-32-12.8-32-32s12.8-32 32-32 32 12.8 32 32-12.8 32-32 32zM544 416c-19.2 0-32-12.8-32-32s12.8-32 32-32 32 12.8 32 32-12.8 32-32 32zM736 416c-19.2 0-32-12.8-32-32s12.8-32 32-32 32 12.8 32 32-12.8 32-32 32zM640 352c-35.2 0-64-28.8-64-64s28.8-64 64-64 64 28.8 64 64-28.8 64-64 64z" />
<glyph unicode="&#xe801;" glyph-name="state" d="M896 835.2v-393.6l-233.6-217.6h-265.6v-153.6h-265.6v768h764.8zM960 899.2h-896v-896h393.6v153.6h227.2l272 256v486.4h3.2zM496 736l51.2-150.4h156.8l-128-92.8 48-150.4-128 92.8-128-92.8 51.2 150.4-128 92.8h156.8z" />
<glyph unicode="&#xe802;" glyph-name="dollar" d="M160 800v-704h704v704h-704zM224 736h576v-576h-576v576zM480 704v-64c-54.4-9.6-96-54.4-96-112 0-60.8 51.2-112 112-112h32c25.6 0 48-22.4 48-48s-22.4-48-48-48h-32c-25.6 0-48 22.4-48 48v16h-64v-16c0-54.4 41.6-102.4 96-112v-64h64v64c54.4 9.6 96 54.4 96 112 0 60.8-51.2 112-112 112h-32c-25.6 0-48 22.4-48 48s22.4 48 48 48h32c25.6 0 48-22.4 48-48v-16h64v16c0 54.4-41.6 102.4-96 112v64h-64z" />
<glyph unicode="&#xe803;" glyph-name="guest" d="M512 800c-124.8 0-224-99.2-224-224 0-76.8 38.4-147.2 99.2-185.6-115.2-48-195.2-163.2-195.2-294.4h64c0 80 38.4 153.6 96 198.4l137.6-128 22.4-22.4 22.4 22.4 137.6 128c57.6-48 96-118.4 96-198.4h64c0 131.2-80 246.4-195.2 294.4 60.8 41.6 99.2 108.8 99.2 185.6 0 124.8-99.2 224-224 224zM512 736c89.6 0 160-70.4 160-160s-70.4-160-160-160-160 70.4-160 160 70.4 160 160 160zM512 352c35.2 0 70.4-6.4 102.4-22.4l-102.4-96-102.4 96c32 16 67.2 22.4 102.4 22.4z" />
<glyph unicode="&#xe804;" glyph-name="administrator" d="M512 800c-124.8 0-224-99.2-224-224 0-76.8 38.4-147.2 99.2-185.6-115.2-48-195.2-163.2-195.2-294.4h64c0 70.4 28.8 134.4 76.8 182.4l57.6-73.6 19.2-22.4 25.6 16 76.8 51.2 76.8-51.2 25.6-16 19.2 25.6 51.2 76.8c51.2-48 83.2-112 83.2-185.6h64c0 131.2-80 246.4-195.2 294.4 60.8 41.6 99.2 108.8 99.2 185.6 0 121.6-99.2 220.8-224 220.8zM512 736c89.6 0 160-70.4 160-160s-70.4-160-160-160-160 70.4-160 160 70.4 160 160 160zM512 352c44.8 0 86.4-12.8 121.6-32l-35.2-51.2-70.4 44.8-19.2 9.6-19.2-9.6-70.4-48-38.4 51.2c41.6 22.4 83.2 35.2 131.2 35.2z" />
<glyph unicode="&#xe805;" glyph-name="user" d="M512 800c-124.8 0-224-99.2-224-224 0-76.8 38.4-147.2 99.2-185.6-115.2-48-195.2-163.2-195.2-294.4h64c0 140.8 115.2 256 256 256s256-115.2 256-256h64c0 131.2-80 246.4-195.2 294.4 60.8 41.6 99.2 108.8 99.2 185.6 0 124.8-99.2 224-224 224zM512 736c89.6 0 160-70.4 160-160s-70.4-160-160-160-160 70.4-160 160 70.4 160 160 160z" />
<glyph unicode="&#xe806;" glyph-name="police" d="M512 800c-89.6 0-156.8-64-217.6-121.6-28.8-28.8-57.6-54.4-80-73.6s-44.8-28.8-54.4-28.8c-51.2 0-96-41.6-96-96 0-38.4 22.4-60.8 38.4-83.2 9.6-12.8 19.2-22.4 25.6-28.8v-128l9.6-9.6c0 0 144-137.6 374.4-137.6s374.4 137.6 374.4 137.6l9.6 9.6v131.2c6.4 6.4 16 16 25.6 28.8 16 22.4 38.4 44.8 38.4 83.2 0 51.2-44.8 96-96 96-12.8 0-32 9.6-54.4 28.8s-51.2 48-80 73.6c-60.8 54.4-128 118.4-217.6 118.4zM512 736c54.4 0 115.2-48 172.8-102.4 28.8-28.8 57.6-57.6 86.4-80s57.6-41.6 96-41.6c19.2 0 32-12.8 32-32 0 3.2-9.6-22.4-25.6-41.6-9.6-12.8-16-19.2-22.4-22.4h-675.2c-6.4 6.4-9.6 9.6-22.4 22.4-16 19.2-25.6 41.6-25.6 41.6 0 16 16 32 32 32 35.2 0 67.2 19.2 96 41.6s57.6 51.2 86.4 80c54.4 54.4 115.2 102.4 169.6 102.4zM448 608v-96l64-32 64 32v96h-128zM192 352h640v-64h-640v64zM262.4 224h502.4c-54.4-32-137.6-64-249.6-64s-198.4 32-252.8 64z" />
<glyph unicode="&#xe807;" glyph-name="accept-database" d="M96 896v-768h355.2c44.8-76.8 128-128 220.8-128 140.8 0 256 115.2 256 256 0 118.4-83.2 217.6-192 246.4v393.6h-640zM160 832h512v-160h-512v160zM160 608h512v-96c-80 0-153.6-38.4-198.4-96h-313.6v192zM672 448c105.6 0 192-86.4 192-192s-86.4-192-192-192-192 86.4-192 192 86.4 192 192 192zM160 352h275.2c-12.8-28.8-19.2-60.8-19.2-96 0-22.4 3.2-44.8 9.6-64h-265.6v160zM777.6 342.4l-105.6-105.6-73.6 73.6-44.8-44.8 118.4-118.4 150.4 150.4-44.8 44.8z" />
<glyph unicode="&#xe808;" glyph-name="inspection" d="M512 880c-41.6 0-70.4-28.8-83.2-64h-268.8v-800h704v800h-268.8c-12.8 35.2-41.6 64-83.2 64zM512 816c19.2 0 32-12.8 32-32v-32h96v-64h-256v64h96v32c0 19.2 12.8 32 32 32zM224 752h96v-128h384v128h96v-672h-576v672zM681.6 518.4l-201.6-201.6-105.6 105.6-44.8-44.8 150.4-150.4 246.4 246.4-44.8 44.8z" />
<glyph unicode="&#xe809;" glyph-name="conference-call" d="M512 688c-86.4 0-160-73.6-160-160 0-48 22.4-92.8 57.6-121.6-35.2-19.2-64-44.8-86.4-76.8-12.8 16-25.6 32-41.6 41.6 22.4 22.4 38.4 54.4 38.4 89.6 0 70.4-57.6 128-128 128s-128-57.6-128-128c0-35.2 16-67.2 38.4-89.6-41.6-28.8-70.4-76.8-70.4-134.4h64c0 54.4 41.6 96 96 96s96-41.6 96-96v-32h64c0 89.6 70.4 160 160 160s160-70.4 160-160h64v32c0 54.4 41.6 96 96 96s96-41.6 96-96h64c0 54.4-28.8 105.6-70.4 134.4 22.4 22.4 38.4 54.4 38.4 89.6 0 70.4-57.6 128-128 128s-128-57.6-128-128c0-35.2 16-67.2 38.4-89.6-16-12.8-32-25.6-41.6-41.6-22.4 32-51.2 57.6-86.4 76.8 35.2 28.8 57.6 73.6 57.6 121.6 0 86.4-73.6 160-160 160zM512 624c54.4 0 96-41.6 96-96s-41.6-96-96-96-96 41.6-96 96 41.6 96 96 96zM192 528c35.2 0 64-28.8 64-64s-28.8-64-64-64-64 28.8-64 64 28.8 64 64 64zM832 528c35.2 0 64-28.8 64-64s-28.8-64-64-64-64 28.8-64 64 28.8 64 64 64z" />
<glyph unicode="&#xe80a;" glyph-name="collaboration" d="M128 816v-256h64v-92.8l51.2 32 89.6 57.6h118.4v-96h243.2l32-32c-64-6.4-115.2-60.8-115.2-128 0-35.2 16-67.2 38.4-89.6-41.6-28.8-70.4-76.8-70.4-134.4h64c0 54.4 41.6 96 96 96s96-41.6 96-96h64c0 54.4-28.8 105.6-70.4 134.4 22.4 22.4 38.4 54.4 38.4 89.6 0 32-12.8 60.8-32 83.2v76.8h64v288h-288v64h-483.2zM192 752h352v-128h-233.6l-6.4-6.4-44.8-32v35.2h-64v131.2zM608 688h224v-160h-64v-51.2l-51.2 51.2h-204.8v32h96v128zM288 432c-70.4 0-128-57.6-128-128 0-35.2 16-67.2 38.4-89.6-41.6-28.8-70.4-76.8-70.4-134.4h64c0 54.4 41.6 96 96 96s96-41.6 96-96h64c0 54.4-28.8 105.6-70.4 134.4 22.4 22.4 38.4 54.4 38.4 89.6 0 70.4-57.6 128-128 128zM288 368c35.2 0 64-28.8 64-64s-28.8-64-64-64-64 28.8-64 64 28.8 64 64 64zM736 368c35.2 0 64-28.8 64-64s-28.8-64-64-64-64 28.8-64 64 28.8 64 64 64z" />
<glyph unicode="&#xe80b;" glyph-name="data-sheet" d="M96 768v-640h832v640h-832zM160 704h128v-128h-128v128zM352 704h128v-128h-128v128zM544 704h128v-128h-128v128zM736 704h128v-128h-128v128zM192 672v-64h64v64h-64zM384 672v-64h64v64h-64zM576 672v-64h64v64h-64zM768 672v-64h64v64h-64zM160 512h128v-128h-128v128zM352 512h128v-128h-128v128zM544 512h128v-128h-128v128zM736 512h128v-128h-128v128zM192 480v-64h64v64h-64zM160 320h128v-128h-128v128zM352 320h128v-128h-128v128zM544 320h128v-128h-128v128zM736 320h128v-128h-128v128zM192 288v-64h64v64h-64z" />
<glyph unicode="&#xe80c;" glyph-name="heat-map" d="M128 832v-768h768v64h-704v704h-64zM512 768c-35.2 0-64-28.8-64-64s28.8-64 64-64 64 28.8 64 64-28.8 64-64 64zM320 736c-19.2 0-32-12.8-32-32s12.8-32 32-32 32 12.8 32 32-12.8 32-32 32zM704 736c-19.2 0-32-12.8-32-32s12.8-32 32-32 32 12.8 32 32-12.8 32-32 32zM864 736c-19.2 0-32-12.8-32-32s12.8-32 32-32 32 12.8 32 32-12.8 32-32 32zM704 576c-35.2 0-64-28.8-64-64s28.8-64 64-64 64 28.8 64 64-28.8 64-64 64zM320 544c-19.2 0-32-12.8-32-32s12.8-32 32-32 32 12.8 32 32-12.8 32-32 32zM864 544c-19.2 0-32-12.8-32-32s12.8-32 32-32 32 12.8 32 32-12.8 32-32 32zM320 352c-35.2 0-64-28.8-64-64s28.8-64 64-64 64 28.8 64 64-28.8 64-64 64zM512 320c-19.2 0-32-12.8-32-32s12.8-32 32-32 32 12.8 32 32-12.8 32-32 32zM704 320c-19.2 0-32-12.8-32-32s12.8-32 32-32 32 12.8 32 32-12.8 32-32 32zM864 320c-19.2 0-32-12.8-32-32s12.8-32 32-32 32 12.8 32 32-12.8 32-32 32z" />
<glyph unicode="&#xe80d;" glyph-name="pie-chart" d="M512 864c-230.4 0-416-185.6-416-416s185.6-416 416-416 416 185.6 416 416-185.6 416-416 416zM476.8 796.8h3.2v-361.6l259.2-259.2c-60.8-51.2-140.8-80-227.2-80-195.2 0-352 156.8-352 352 0 182.4 137.6 332.8 316.8 348.8zM544 796.8c169.6-16 304-150.4 316.8-316.8h-316.8v316.8zM588.8 416h272c-6.4-73.6-35.2-140.8-80-195.2l-192 195.2z" />
<glyph unicode="&#xe80e;" glyph-name="statistics" d="M480 832v-32h-352v-576h768v576h-352v32h-64zM192 736h640v-448h-640v448zM672 652.8l-160-160-128 128-118.4-118.4 44.8-44.8 73.6 73.6 128-128 160 160 41.6-41.6 44.8 44.8-86.4 86.4zM416 192l-64-128h64l64 128h-64zM544 192l64-128h64l-64 128h-64z" />
<glyph unicode="&#xe80f;" glyph-name="water-tower" d="M508.8 835.2l-12.8-6.4-224-96-19.2-6.4v-278.4h54.4l-108.8-384h67.2l108.8 384h272l108.8-384h67.2l-108.8 384h54.4v278.4l-19.2 6.4-224 96-16 6.4zM508.8 764.8l192-83.2v-169.6h-384v169.6l192 83.2zM400 364.8l-16-51.2 76.8-48-108.8-67.2-22.4-73.6 179.2 108.8 179.2-108.8-22.4 73.6-108.8 67.2 76.8 48-16 51.2-108.8-67.2-108.8 67.2z" />
<glyph unicode="&#xe810;" glyph-name="geography" d="M512 832c-211.2 0-384-172.8-384-384s172.8-384 384-384 384 172.8 384 384-172.8 384-384 384zM480 761.6v-121.6h-96c6.4 16 12.8 28.8 19.2 41.6 22.4 41.6 51.2 67.2 76.8 80zM544 761.6c25.6-12.8 54.4-38.4 76.8-80 6.4-12.8 12.8-25.6 19.2-41.6h-96v121.6zM358.4 729.6c-3.2-6.4-6.4-9.6-9.6-16-12.8-22.4-22.4-44.8-32-70.4h-60.8c28.8 32 60.8 64 102.4 86.4zM665.6 729.6c38.4-22.4 73.6-51.2 102.4-89.6h-60.8c-9.6 25.6-19.2 51.2-32 70.4-3.2 6.4-6.4 12.8-9.6 19.2zM217.6 576h83.2c-6.4-32-9.6-64-12.8-96h-96c6.4 35.2 12.8 67.2 25.6 96zM364.8 576h115.2v-96h-128c3.2 35.2 6.4 67.2 12.8 96zM544 576h115.2c6.4-28.8 12.8-60.8 12.8-96h-128v96zM723.2 576h83.2c12.8-28.8 19.2-60.8 25.6-96h-96c-3.2 32-6.4 64-12.8 96zM195.2 416h96c0-32 6.4-64 12.8-96h-83.2c-16 28.8-22.4 60.8-25.6 96zM352 416h128v-96h-115.2c-6.4 28.8-9.6 60.8-12.8 96zM544 416h128c-3.2-35.2-6.4-67.2-12.8-96h-115.2v96zM736 416h96c-3.2-35.2-9.6-67.2-25.6-96h-83.2c6.4 32 9.6 64 12.8 96zM256 256h60.8c9.6-25.6 19.2-51.2 32-70.4 3.2-6.4 6.4-9.6 9.6-16-41.6 19.2-73.6 51.2-102.4 86.4zM384 256h96v-121.6c-25.6 12.8-54.4 38.4-76.8 80-6.4 12.8-12.8 25.6-19.2 41.6zM544 256h96c-6.4-16-12.8-28.8-19.2-41.6-22.4-41.6-48-67.2-76.8-80v121.6zM707.2 256h60.8c-28.8-35.2-60.8-67.2-102.4-89.6 3.2 6.4 6.4 9.6 9.6 16 12.8 22.4 22.4 48 32 73.6z" />
<glyph unicode="&#xe811;" glyph-name="caretaker" d="M336 736c-105.6 0-192-86.4-192-192 0-64 32-121.6 80-153.6-83.2-41.6-144-128-144-230.4h64c0 105.6 86.4 192 192 192s192-86.4 192-192h64c0 99.2-57.6 185.6-144 230.4 48 35.2 80 92.8 80 153.6 0 105.6-86.4 192-192 192zM336 672c70.4 0 128-57.6 128-128s-57.6-128-128-128-128 57.6-128 128 57.6 128 128 128zM784 486.4l-16-9.6-128-83.2-16-9.6v-224h320v224l-16 9.6-128 83.2-16 9.6zM784 409.6l96-60.8v-124.8h-192v124.8l96 60.8z" />
<glyph unicode="&#xe812;" glyph-name="area-chart" d="M896 832l-51.2-38.4-147.2-115.2-179.2 28.8-12.8 3.2-192-128-147.2 28.8-38.4 6.4v-550.4h768v764.8zM832 700.8v-172.8l-134.4-105.6-176 57.6-16 6.4-12.8-6.4-179.2-118.4-124.8 51.2v131.2l121.6-25.6 12.8-3.2 192 128 179.2-28.8 12.8-3.2 9.6 9.6 115.2 80zM832 444.8v-316.8h-640v208l115.2-44.8 16-6.4 12.8 9.6 179.2 121.6 176-57.6 16-6.4 12.8 9.6 112 83.2z" />
<glyph unicode="&#xe813;" glyph-name="ecosystem" d="M224 864c-70.4 0-128-57.6-128-128s57.6-128 128-128c22.4 0 44.8 6.4 60.8 16l70.4-76.8c-22.4-28.8-35.2-60.8-35.2-99.2 0-35.2 12.8-67.2 32-92.8l-57.6-57.6c0 0 0 0 0 0-19.2 12.8-44.8 22.4-70.4 22.4-70.4 0-128-57.6-128-128s57.6-128 128-128 128 57.6 128 128c0 22.4-6.4 41.6-16 57.6l60.8 60.8c25.6-16 51.2-22.4 83.2-22.4 22.4 0 44.8 6.4 64 12.8l38.4-54.4c-22.4-22.4-38.4-54.4-38.4-89.6 0-70.4 57.6-128 128-128s128 57.6 128 128-57.6 128-128 128c-12.8 0-25.6-3.2-35.2-6.4l-38.4 57.6c19.2 22.4 35.2 48 41.6 76.8h38.4c12.8-54.4 64-96 121.6-96 70.4 0 128 57.6 128 128s-57.6 128-128 128c-60.8 0-108.8-41.6-121.6-96h-38.4c-6.4 38.4-28.8 70.4-57.6 92.8l12.8 38.4c3.2 0 9.6-3.2 12.8-3.2 70.4 0 128 57.6 128 128s-57.6 128-128 128-128-57.6-128-128c0-41.6 22.4-80 54.4-102.4l-12.8-32c-12.8 3.2-28.8 6.4-41.6 6.4-28.8 0-51.2-6.4-73.6-19.2l-73.6 80c12.8 19.2 19.2 41.6 19.2 67.2 0 73.6-57.6 131.2-128 131.2zM224 800c35.2 0 64-28.8 64-64 0-19.2-6.4-32-19.2-44.8s-25.6-19.2-44.8-19.2c-35.2 0-64 28.8-64 64s28.8 64 64 64zM608 800c35.2 0 64-28.8 64-64s-28.8-64-64-64-64 28.8-64 64 28.8 64 64 64zM480 544c54.4 0 96-41.6 96-96 0 0 0-3.2 0-3.2-3.2-51.2-44.8-92.8-96-92.8-22.4 0-44.8 9.6-64 22.4-19.2 19.2-32 44.8-32 73.6 0 54.4 41.6 96 96 96zM800 512c35.2 0 64-28.8 64-64s-28.8-64-64-64-64 28.8-64 64 28.8 64 64 64zM224 256c35.2 0 64-28.8 64-64s-28.8-64-64-64-64 28.8-64 64 28.8 64 64 64zM672 224c35.2 0 64-28.8 64-64s-28.8-64-64-64-64 28.8-64 64c0 22.4 9.6 38.4 25.6 51.2 6.4 0 9.6 3.2 12.8 6.4 0 0 0 0 0 0 9.6 6.4 16 6.4 25.6 6.4z" />
<glyph unicode="&#xe814;" glyph-name="root-server" d="M512 800l-12.8-3.2-320-128-19.2-6.4v-566.4h704v566.4l-19.2 6.4-320 128-12.8 3.2zM512 732.8l288-115.2v-457.6h-576v457.6l288 115.2zM288 512v-128h448v128h-448zM672 480c19.2 0 32-12.8 32-32s-12.8-32-32-32-32 12.8-32 32 12.8 32 32 32zM288 352v-128h448v128h-448zM672 320c19.2 0 32-12.8 32-32s-12.8-32-32-32-32 12.8-32 32 12.8 32 32 32z" />
<glyph unicode="&#xe815;" glyph-name="key" d="M640 864c-156.8 0-288-131.2-288-288 0-16 3.2-32 6.4-44.8l-262.4-259.2v-236.8h224v96h96v96h96v96c38.4-19.2 83.2-32 128-32 156.8 0 288 131.2 288 288s-131.2 284.8-288 284.8zM640 800c124.8 0 224-99.2 224-224s-99.2-224-224-224c-38.4 0-80 12.8-108.8 28.8l-6.4 3.2h-73.6v-96h-96v-96h-96v-96h-96v147.2l252.8 252.8 12.8 9.6-3.2 16c-3.2 19.2-6.4 35.2-6.4 51.2-3.2 128 96 227.2 220.8 227.2zM704 704c-35.2 0-64-28.8-64-64s28.8-64 64-64 64 28.8 64 64-28.8 64-64 64z" />
<glyph unicode="&#xe816;" glyph-name="shield" d="M512 832c-70.4 0-121.6-28.8-163.2-51.2s-83.2-44.8-156.8-44.8h-32v-32c0-246.4 83.2-406.4 166.4-505.6s172.8-134.4 172.8-134.4l12.8-3.2 12.8 3.2c0 0 86.4 35.2 172.8 131.2s166.4 259.2 166.4 505.6v32h-32c-73.6 0-112 19.2-156.8 44.8s-92.8 54.4-163.2 54.4zM512 768c57.6 0 89.6-19.2 134.4-44.8 38.4-19.2 89.6-41.6 153.6-48-6.4-217.6-76.8-355.2-150.4-438.4-64-73.6-121.6-99.2-134.4-105.6-16 6.4-70.4 32-134.4 108.8-73.6 83.2-144 220.8-150.4 435.2 64 6.4 115.2 25.6 153.6 48 38.4 25.6 70.4 44.8 128 44.8z" />
<glyph unicode="&#xe817;" glyph-name="lock" d="M512 880c-121.6 0-224-102.4-224-224v-92.8c-57.6-57.6-96-137.6-96-227.2 0-176 144-320 320-320s320 144 320 320c0 89.6-38.4 169.6-96 227.2v92.8c0 121.6-102.4 224-224 224zM512 816c89.6 0 160-70.4 160-160v-44.8c-48 28.8-102.4 44.8-160 44.8s-112-16-160-44.8v44.8c0 89.6 70.4 160 160 160zM512 592c140.8 0 256-115.2 256-256s-115.2-256-256-256-256 115.2-256 256 115.2 256 256 256zM512 400c-35.2 0-64-28.8-64-64 0-22.4 12.8-44.8 32-54.4v-105.6h64v105.6c19.2 9.6 32 32 32 54.4 0 35.2-28.8 64-64 64z" />
<glyph unicode="&#xe818;" glyph-name="expand" d="M128 832v-288h64v179.2l233.6-233.6 44.8 44.8-233.6 233.6h179.2v64h-288zM608 832v-64h179.2l-233.6-233.6 44.8-44.8 233.6 233.6v-179.2h64v288h-288zM425.6 406.4l-233.6-233.6v179.2h-64v-288h288v64h-179.2l233.6 233.6-44.8 44.8zM598.4 406.4l-44.8-44.8 233.6-233.6h-179.2v-64h288v288h-64v-179.2l-233.6 233.6z" />
<glyph unicode="&#xe819;" glyph-name="open-source" d="M764.8 73.6l-38.4 51.2c89.6 67.2 137.6 169.6 137.6 281.6 0 195.2-156.8 352-352 352s-352-156.8-352-352c0-112 51.2-211.2 137.6-278.4l-38.4-51.2c-102.4 80-163.2 198.4-163.2 329.6 0 230.4 185.6 416 416 416s416-185.6 416-416c0-131.2-60.8-252.8-163.2-332.8zM403.2 262.4c-44.8 35.2-70.4 86.4-70.4 144 0 99.2 80 179.2 179.2 179.2s179.2-80 179.2-179.2c0-57.6-25.6-108.8-70.4-144l-38.4 51.2c28.8 22.4 44.8 54.4 44.8 92.8 0 64-51.2 115.2-115.2 115.2s-115.2-51.2-115.2-115.2c0-35.2 16-70.4 44.8-92.8l-38.4-51.2z" />
<glyph unicode="&#xe81a;" glyph-name="life-cycle" d="M512 864c-208 0-380.8-153.6-409.6-352h-86.4l112-140.8 112 140.8h-73.6c28.8 163.2 172.8 288 345.6 288 96 0 185.6-38.4 249.6-102.4l44.8 44.8c-76.8 73.6-179.2 121.6-294.4 121.6zM512 640c-70.4 0-128-57.6-128-128 0-35.2 16-67.2 38.4-89.6-41.6-28.8-70.4-76.8-70.4-134.4h64c0 54.4 41.6 96 96 96s96-41.6 96-96h64c0 54.4-28.8 105.6-70.4 134.4 22.4 22.4 38.4 54.4 38.4 89.6 0 70.4-57.6 128-128 128zM512 576c35.2 0 64-28.8 64-64s-28.8-64-64-64-64 28.8-64 64 28.8 64 64 64zM896 556.8l-112-140.8h76.8c-16-179.2-166.4-320-348.8-320-96 0-185.6 38.4-249.6 102.4l-44.8-44.8c76.8-76.8 179.2-121.6 294.4-121.6 217.6 0 396.8 169.6 412.8 384h83.2l-112 140.8z" />
<glyph unicode="&#xe81b;" glyph-name="combo-chart" d="M870.4 825.6l-108.8-134.4-128 96-19.2-25.6-112-140.8-105.6 54.4-25.6 12.8-16-22.4-108.8-163.2-102.4 76.8-38.4-51.2 153.6-115.2 19.2 28.8 112 166.4 102.4-51.2 22.4-9.6 16 19.2 108.8 134.4 128-96 19.2 25.6 128 160-44.8 35.2zM864 582.4v-512h64v512h-64zM608 486.4v-416h64v416h-64zM352 454.4v-384h64v384h-64zM736 422.4v-352h64v352h-64zM96 390.4v-320h64v320h-64zM480 390.4v-320h64v320h-64zM224 294.4v-224h64v224h-64z" />
<glyph unicode="&#xe900;" glyph-name="open-data-network" d="M736 716.8l44.8 44.8c-64 54.4-147.2 92.8-236.8 99.2v-64c73.6-6.4 137.6-35.2 192-80zM480 796.8v64c-204.8-16-368-179.2-380.8-380.8h64c12.8 169.6 147.2 304 316.8 316.8zM160 416h-64c16-204.8 179.2-368 380.8-380.8v64c-166.4 12.8-300.8 147.2-316.8 316.8zM928 448c0 102.4-38.4 198.4-99.2 268.8l-44.8-44.8c51.2-60.8 83.2-140.8 83.2-224 0-182.4-140.8-332.8-320-348.8v-64c211.2 16 380.8 195.2 380.8 412.8z" />
<glyph unicode="&#xe901;" glyph-name="clinic" d="M512 800l-12.8-6.4-384-160-19.2-9.6v-534.4h832v534.4l-19.2 9.6-384 160-12.8 6.4zM512 732.8l352-147.2v-425.6h-704v425.6l352 147.2zM480 544v-96h-96v-64h96v-96h64v96h96v64h-96v96h-64z" />
<glyph unicode="&#xe902;" glyph-name="snow-plow" d="M284.8 800l-6.4-6.4-35.2-22.4-9.6-6.4-3.2-9.6-22.4-64-115.2-22.4-25.6-3.2v-313.6c0-32 6.4-57.6 16-83.2s32-44.8 64-44.8c22.4 0 41.6 12.8 54.4 32l96-22.4c3.2-19.2 9.6-35.2 16-51.2 16-28.8 38.4-54.4 73.6-54.4 3.2 0 6.4 0 6.4 0l534.4-32 35.2-3.2v291.2h-64v64c0 38.4-22.4 73.6-60.8 89.6l-73.6 32-25.6 89.6c-6.4 28.8-32 48-60.8 48h-204.8l-67.2-9.6c-32-3.2-54.4-32-54.4-64v-192c-9.6-6.4-19.2-12.8-25.6-22.4h-64l-51.2 9.6c0 3.2-3.2 6.4-3.2 6.4-12.8 22.4-32 44.8-64 44.8-6.4 0-9.6 0-16-3.2v134.4l105.6 19.2 19.2 3.2 6.4 16 25.6 70.4 19.2 9.6h390.4v64h-409.6zM518.4 640h160l16-64h-163.2l-12.8 64zM454.4 636.8l22.4-99.2 6.4-25.6h246.4l83.2-35.2c12.8-6.4 19.2-16 19.2-28.8v-3.2c-19.2-6.4-32-25.6-32-44.8 0-6.4 0-9.6 3.2-16h-166.4c3.2 6.4 3.2 9.6 3.2 16 0 25.6-22.4 48-48 48s-48-22.4-48-48c0-6.4 0-9.6 3.2-16h-86.4c0 3.2-3.2 6.4-3.2 9.6-9.6 19.2-22.4 35.2-41.6 44.8v192l38.4 6.4zM144 416c0 0 3.2-3.2 6.4-6.4 6.4-12.8 9.6-32 9.6-54.4s-6.4-41.6-9.6-54.4c-3.2-6.4-3.2-6.4-6.4-6.4 0 0-3.2 3.2-6.4 6.4-6.4 12.8-9.6 32-9.6 54.4s6.4 41.6 9.6 54.4c3.2 3.2 6.4 3.2 6.4 6.4zM384 384c0 0 9.6-3.2 16-19.2s16-44.8 16-76.8-6.4-57.6-16-76.8-16-19.2-16-19.2-9.6 3.2-16 19.2-16 44.8-16 76.8 6.4 57.6 16 76.8 16 19.2 16 19.2zM224 358.4l32-6.4h41.6c-3.2-16-6.4-32-6.4-51.2l-67.2 16c3.2 12.8 3.2 22.4 3.2 35.2-3.2 3.2-3.2 6.4-3.2 6.4zM476.8 320h419.2v-156.8l-435.2 25.6c12.8 28.8 19.2 60.8 19.2 99.2 0 12.8 0 22.4-3.2 32z" />
<glyph unicode="&#xe903;" glyph-name="bus" d="M288 832c-70.4 0-128-57.6-128-128v-160h-64v-96h64v-352c0-19.2 12.8-32 32-32h96l9.6 32h425.6l9.6-32h96c19.2 0 32 12.8 32 32v352h64v96h-64v160c0 70.4-57.6 128-128 128h-444.8zM288 768h448c35.2 0 64-28.8 64-64h-576c0 35.2 28.8 64 64 64zM224 640h256v-224h-256v224zM544 640h256v-224h-256v224zM224 352h576v-192h-576v192zM256 288v-64h128v64h-128zM640 288v-64h128v64h-128z" />
<glyph unicode="&#xe904;" glyph-name="subway" d="M320 848c-86.4 0-160-73.6-160-160v-384c0-76.8 48-144 112-176l-80-80h73.6l64 64c6.4 0 12.8 0 19.2 0h320c6.4 0 12.8 0 19.2 0l64-64h73.6l-80 80c67.2 28.8 112 96 112 176v384c0 86.4-73.6 160-160 160h-377.6zM320 784h384c41.6 0 76.8-25.6 89.6-64h-566.4c16 38.4 51.2 64 92.8 64zM224 656h256v-192h-256v192zM544 656h256v-192h-256v192zM224 400h576v-96c0-70.4-57.6-128-128-128h-320c-70.4 0-128 57.6-128 128v96zM336 336c-25.6 0-48-22.4-48-48s22.4-48 48-48 48 22.4 48 48-22.4 48-48 48zM688 336c-25.6 0-48-22.4-48-48s22.4-48 48-48 48 22.4 48 48-22.4 48-48 48z" />
<glyph unicode="&#xe905;" glyph-name="certified" d="M512 864c-19.2 0-38.4-6.4-57.6-19.2l-54.4-38.4-60.8-6.4c-41.6-9.6-73.6-41.6-83.2-83.2v0 0l-6.4-60.8-38.4-48c-22.4-35.2-22.4-83.2 0-115.2l38.4-54.4 9.6-54.4-102.4-156.8-32-48h150.4l38.4-86.4 22.4-54.4 32 51.2 102.4 153.6c25.6-9.6 57.6-12.8 83.2 0l102.4-153.6 32-51.2 22.4 54.4 38.4 86.4h150.4l-32 48-99.2 153.6 6.4 60.8 38.4 54.4c22.4 35.2 22.4 80 0 115.2l-38.4 54.4-12.8 60.8c0 0 0 0 0 3.2-6.4 41.6-38.4 76.8-80 80v0l-60.8 6.4-54.4 38.4c-16 3.2-35.2 9.6-54.4 9.6zM512 800c6.4 0 16-3.2 19.2-6.4l57.6-41.6 6.4-6.4h6.4l70.4-9.6c12.8 0 25.6-12.8 25.6-25.6v0 0l12.8-70.4v-6.4l6.4-6.4 41.6-57.6c6.4-9.6 9.6-28.8 0-44.8l-38.4-57.6-6.4-6.4v-6.4l-9.6-70.4c0-6.4-3.2-9.6-6.4-12.8h-3.2c-3.2-6.4-9.6-9.6-19.2-9.6v0 0l-73.6-12.8h-6.4l-6.4-6.4-57.6-41.6c-9.6-6.4-28.8-9.6-44.8 0l-51.2 38.4-6.4 6.4h-9.6l-70.4 9.6c-9.6 0-16 6.4-22.4 12.8-3.2 3.2-3.2 6.4-3.2 12.8v0 0l-12.8 73.6v6.4l-6.4 6.4-41.6 57.6c-6.4 9.6-9.6 28.8 0 44.8l38.4 51.2 6.4 6.4v9.6l9.6 67.2c0 0 0 0 0 0 3.2 16 16 28.8 32 32 0 0 0 0 0 0l67.2 9.6h6.4l6.4 6.4 57.6 41.6c9.6 3.2 19.2 6.4 25.6 6.4zM732.8 313.6l48-73.6h-80l-6.4-19.2-22.4-51.2-67.2 102.4 16 9.6 64 9.6c0 0 0 0 3.2 0 16 3.2 32 9.6 44.8 22.4zM291.2 310.4c12.8-12.8 32-19.2 51.2-22.4 0 0 0 0 0 0l60.8-6.4 12.8-9.6-67.2-102.4-22.4 51.2-6.4 19.2h-80l51.2 70.4z" />
<glyph unicode="&#xe906;" glyph-name="university" d="M512 819.2l-12.8-6.4-339.2-166.4v-54.4h704v54.4l-19.2 9.6-332.8 163.2zM512 745.6l188.8-92.8h-377.6l188.8 92.8zM224 556.8v-320h-32v-64h640v64h-32v320h-64v-320h-64v320h-64v-320h-64v320h-64v-320h-64v320h-64v-320h-64v320h-64zM128 140.8v-64h768v64h-768z" />
<glyph unicode="&#xe907;" glyph-name="student" d="M512 739.2l-9.6-3.2-400-134.4-89.6-28.8 54.4-16v-281.6c-19.2-9.6-32-32-32-54.4 0-35.2 28.8-64 64-64s64 28.8 64 64c0 22.4-12.8 44.8-32 54.4v259.2l64-22.4v-163.2c0-25.6 16-48 35.2-64s41.6-25.6 70.4-35.2c57.6-19.2 131.2-28.8 214.4-28.8s156.8 9.6 214.4 28.8c28.8 9.6 51.2 19.2 70.4 35.2s35.2 35.2 35.2 64v163.2l179.2 57.6-89.6 28.8-400 134.4-12.8 6.4zM512 672l300.8-99.2-300.8-99.2-300.8 99.2 300.8 99.2zM256 489.6l256-86.4 9.6 3.2 246.4 83.2v-140.8c0 0 0-3.2-9.6-12.8s-28.8-19.2-51.2-25.6c-48-16-118.4-25.6-195.2-25.6s-147.2 9.6-195.2 25.6c-22.4 6.4-41.6 19.2-51.2 25.6s-9.6 12.8-9.6 12.8v140.8z" />
<glyph unicode="&#xe908;" glyph-name="city-sm" d="M416 704h64v-64h-64v64zM544 704h64v-64h-64v64zM416 576h64v-64h-64v64zM544 576h64v-64h-64v64zM416 448h64v-64h-64v64zM544 448h64v-64h-64v64zM416 320h64v-64h-64v64zM544 320h64v-64h-64v64zM672 131.2h-320v636.8h320v-636.8zM736 131.2v700.8h-448v-700.8h-192v-64h832v64h-192z" />
<glyph unicode="&#xe909;" glyph-name="city-lg" d="M416 704h64v-64h-64v64zM544 704h64v-64h-64v64zM416 576h64v-64h-64v64zM544 576h64v-64h-64v64zM416 448h64v-64h-64v64zM544 448h64v-64h-64v64zM416 320h64v-64h-64v64zM544 320h64v-64h-64v64zM896 131.2v512h-160v188.8h-448v-188.8h-160v-512h-32v-64h832v64h-32zM256 131.2h-64v448h96v-64h-32v-64h32v-64h-32v-64h32v-64h-32v-64h32v-64h-32zM672 131.2h-320v636.8h320v-636.8zM832 131.2h-96v64h32v64h-32v64h32v64h-32v64h32v64h-32v64h96v-448z" />
<glyph unicode="&#xe90a;" glyph-name="city-md" d="M864 131.2v512h-256v188.8h-448v-700.8h-32v-64h768v64h-32zM608 131.2v448h192v-448h-192zM224 131.2v636.8h320v-636.8h-320zM288 704h64v-64h-64v64zM416 704h64v-64h-64v64zM288 576h64v-64h-64v64zM416 576h64v-64h-64v64zM288 448h64v-64h-64v64zM416 448h64v-64h-64v64zM288 320h64v-64h-64v64zM416 320h64v-64h-64v64zM672 515.2h64v-64h-64v64zM672 387.2h64v-64h-64v64zM672 259.2h64v-64h-64v64z" />
<glyph unicode="&#xe90b;" glyph-name="tools" d="M172.8 867.2l-19.2-16-44.8-44.8-16-19.2 12.8-22.4 76.8-128h96l128-128c-115.2-115.2-259.2-262.4-265.6-265.6-51.2-51.2-51.2-131.2 0-179.2s131.2-51.2 179.2 0c0 0 0 0 0 0l198.4 198.4 201.6-201.6c51.2-48 131.2-48 176 3.2v0 0c48 51.2 48 131.2 0 179.2v0l-166.4 166.4c112 9.6 201.6 105.6 201.6 220.8v0c0 0 0 0 0 3.2 0 0 0 0 0 0 3.2 38.4-6.4 73.6-25.6 102.4l-22.4 35.2-150.4-150.4-44.8 48 153.6 153.6-44.8 19.2c-25.6 9.6-54.4 19.2-89.6 19.2-121.6 0-224-102.4-224-224 0-12.8 3.2-25.6 6.4-38.4-12.8-12.8-25.6-25.6-41.6-41.6l-128 128v96l-128 76.8-19.2 9.6zM707.2 796.8c3.2 0 6.4-3.2 12.8-3.2l-121.6-121.6 22.4-22.4 89.6-92.8 22.4-22.4 124.8 124.8c0-6.4 6.4-12.8 6.4-22.4v0-3.2c0-89.6-70.4-160-160-160-12.8 0-25.6 3.2-41.6 6.4l-16 3.2-374.4-374.4c-22.4-25.6-64-25.6-89.6 0v0 0c-25.6 22.4-25.6 64 0 89.6 12.8 12.8 246.4 249.6 361.6 364.8l12.8 12.8-6.4 19.2c-3.2 9.6-6.4 28.8-6.4 38.4 3.2 89.6 76.8 163.2 163.2 163.2zM182.4 787.2l73.6-44.8v-32l-6.4-6.4h-32l-44.8 73.6 9.6 9.6zM649.6 400l198.4-198.4c25.6-22.4 25.6-64 0-89.6v0 0c-22.4-25.6-64-25.6-89.6 0l-198.4 198.4 89.6 89.6z" />
<glyph unicode="&#xe90c;" glyph-name="dashboard" d="M512 768c-211.2 0-384-172.8-384-384 0-92.8 32-179.2 89.6-243.2l9.6-12.8h576l9.6 12.8c54.4 67.2 89.6 150.4 89.6 243.2-6.4 211.2-179.2 384-390.4 384zM512 704c176 0 320-144 320-320 0-73.6-25.6-137.6-67.2-192h-508.8c-41.6 54.4-67.2 118.4-67.2 192 3.2 176 147.2 320 323.2 320zM512 672c-19.2 0-32-12.8-32-32s12.8-32 32-32 32 12.8 32 32-12.8 32-32 32zM384 636.8c-19.2 0-32-12.8-32-32s12.8-32 32-32 32 12.8 32 32-12.8 32-32 32zM640 636.8c-19.2 0-32-12.8-32-32s12.8-32 32-32 32 12.8 32 32-12.8 32-32 32zM291.2 544c-19.2 0-32-12.8-32-32s12.8-32 32-32 32 12.8 32 32-16 32-32 32zM726.4 544l-182.4-102.4c-9.6 6.4-19.2 9.6-32 9.6-35.2 0-64-28.8-64-64s28.8-64 64-64c35.2 0 64 28.8 64 64 0 0 0 0 0 0l182.4 102.4-32 54.4zM256 416c-19.2 0-32-12.8-32-32s12.8-32 32-32 32 12.8 32 32-12.8 32-32 32zM768 416c-19.2 0-32-12.8-32-32s12.8-32 32-32 32 12.8 32 32-12.8 32-32 32zM291.2 288c-19.2 0-32-12.8-32-32s12.8-32 32-32 32 12.8 32 32-16 32-32 32zM732.8 288c-19.2 0-32-12.8-32-32s12.8-32 32-32 32 12.8 32 32-12.8 32-32 32z" />
<glyph unicode="&#xe90d;" glyph-name="close" d="M230.4 774.4l-44.8-44.8 281.6-281.6-281.6-281.6 44.8-44.8 281.6 281.6 281.6-281.6 44.8 44.8-281.6 281.6 281.6 281.6-44.8 44.8-281.6-281.6-281.6 281.6z" />
<glyph unicode="&#xe90e;" glyph-name="restaurant" d="M224 800v-224c0-51.2 44.8-96 96-96v-384h64v384c51.2 0 96 44.8 96 96v224h-64v-224c0-19.2-12.8-32-32-32v256h-64v-256c-19.2 0-32 12.8-32 32v224h-64zM608 800v-704h64v236.8l128 64v243.2c0 86.4-73.6 160-160 160h-32zM672 723.2c35.2-12.8 64-41.6 64-83.2v-204.8l-64-32v320z" />
<glyph unicode="&#xe90f;" glyph-name="class" d="M160 736v-512h-64v-64h832v64h-64v512h-704zM224 672h576v-448h-576v448zM681.6 566.4l-137.6-137.6-128 128-118.4-118.4 44.8-44.8 73.6 73.6 128-128 182.4 182.4-44.8 44.8zM640 320l-32-32 32-32h128v64h-128z" />
<glyph unicode="&#xe910;" glyph-name="monitor" d="M64 800v-576h416v-64h-160v-64h384v64h-160v64h416v576h-896zM128 736h768v-448h-768v448z" />
<glyph unicode="&#xe911;" glyph-name="handshake" d="M617.6 784c-19.2 0-35.2 0-54.4-6.4s-38.4-12.8-57.6-25.6c-25.6 12.8-48 25.6-70.4 28.8-28.8 3.2-54.4 0-86.4 0-35.2 0-60.8-19.2-99.2-35.2s-83.2-25.6-153.6-25.6h-32v-307.2l76.8-38.4 211.2-233.6c25.6-22.4 57.6-28.8 86.4-28.8 28.8 3.2 54.4 9.6 76.8 22.4 48 28.8 176 118.4 176 118.4l6.4 6.4c16 16 22.4 32 28.8 54.4l121.6 60.8 92.8 32 22.4 6.4v310.4h-32c-70.4 0-118.4 16-156.8 28.8-38.4 16-60.8 32-99.2 35.2-22.4-3.2-38.4-3.2-57.6-3.2zM617.6 720c12.8 0 32 0 51.2 0 3.2 0 35.2-12.8 76.8-28.8 35.2-12.8 86.4-25.6 147.2-32v-204.8l-73.6-25.6h-6.4l-96-48c-6.4 16-12.8 28.8-25.6 38.4l-3.2 3.2-134.4 166.4-19.2 25.6-25.6-19.2-86.4-70.4c-28.8-19.2-51.2-12.8-76.8-3.2-6.4 3.2-6.4 3.2-12.8 6.4l147.2 121.6c44.8 41.6 70.4 57.6 92.8 64 19.2 6.4 32 6.4 44.8 6.4zM396.8 720c12.8 0 22.4 0 32 0s19.2-9.6 25.6-9.6c-3.2-6.4-6.4-6.4-9.6-9.6 0 0 0 0-3.2-3.2l-176-144-25.6-22.4 25.6-25.6c0 0 22.4-25.6 57.6-41.6s89.6-25.6 140.8 6.4v0 0l60.8 51.2 118.4-144v-3.2c22.4-22.4 19.2-54.4 0-73.6 0 0 0 0 0 0s-3.2-3.2-6.4-3.2l-41.6 57.6-51.2-38.4 41.6-54.4c-16-12.8-25.6-16-41.6-28.8l-41.6 57.6-51.2-38.4 41.6-54.4c-3.2-3.2-9.6-6.4-12.8-9.6-9.6-6.4-28.8-12.8-48-12.8-16 0-28.8 3.2-35.2 6.4v0l-214.4 236.8-3.2 6.4-51.2 25.6v208c60.8 3.2 112 16 147.2 28.8 44.8 16 73.6 32 76.8 32 16 0 32 0 44.8 0z" />
<glyph unicode="&#xe912;" glyph-name="guru" d="M512 848c-70.4 0-128-57.6-128-128s57.6-128 128-128 128 57.6 128 128-57.6 128-128 128zM512 784c35.2 0 64-28.8 64-64s-28.8-64-64-64-64 28.8-64 64 28.8 64 64 64zM467.2 560c-64 0-121.6-38.4-147.2-96l-57.6-131.2-144-28.8 12.8-60.8 176 35.2 6.4 16 64 147.2c16 35.2 48 57.6 89.6 57.6h89.6c38.4 0 73.6-22.4 89.6-57.6l64-147.2 6.4-16 176-35.2 12.8 60.8-144 28.8-57.6 131.2c-25.6 57.6-83.2 96-147.2 96h-89.6zM416 409.6l-64-150.4-102.4-41.6c-35.2-9.6-57.6-44.8-57.6-80 0-48 41.6-89.6 89.6-89.6h460.8c48 0 89.6 41.6 89.6 89.6 0 35.2-22.4 70.4-57.6 83.2l-102.4 41.6-64 150.4v-195.2l19.2-6.4 124.8-48c9.6-3.2 16-12.8 16-25.6s-9.6-25.6-25.6-25.6h-137.6c0 6.4 3.2 9.6 3.2 16 0 44.8-35.2 80-80 80l-176-64h176c9.6 0 16-6.4 16-16s-6.4-16-16-16h-246.4c-12.8 0-25.6 9.6-25.6 25.6 0 9.6 6.4 19.2 16 25.6v0l121.6 48 19.2 6.4v192z" />
<glyph unicode="&#xe913;" glyph-name="support" d="M512 864c-192 0-352-160-352-352v-48c-19.2-22.4-32-48-32-80 0-51.2 32-89.6 76.8-112 35.2-137.6 160-240 307.2-240 105.6 0 198.4 48 256 128v0c60.8 0 112 44.8 124.8 102.4 6.4 3.2 12.8 6.4 16 12.8 12.8 12.8 19.2 28.8 19.2 44.8v160c0 16-6.4 35.2-19.2 44.8s-28.8 19.2-44.8 19.2h-3.2c-16 179.2-166.4 320-348.8 320zM512 800c140.8 0 256-99.2 281.6-233.6-6.4 3.2-12.8 3.2-16 6.4-22.4 6.4-44.8 6.4-64 12.8s-35.2 12.8-48 28.8-25.6 38.4-25.6 89.6h-64c0-64-19.2-89.6-44.8-105.6s-70.4-22.4-115.2-22.4-92.8 3.2-137.6-6.4c-19.2-3.2-35.2-9.6-51.2-22.4 16 144 137.6 252.8 284.8 252.8zM604.8 582.4c3.2-3.2 3.2-6.4 6.4-9.6 22.4-28.8 54.4-41.6 83.2-51.2s54.4-9.6 67.2-12.8c3.2 0 3.2 0 6.4-3.2v-249.6h57.6c-9.6-19.2-28.8-32-57.6-32h-195.2c-6.4 19.2-25.6 32-44.8 32-25.6 0-48-22.4-48-48s22.4-48 48-48h153.6c-44.8-41.6-102.4-64-169.6-64-121.6 0-224 89.6-249.6 201.6l-3.2 19.2-19.2 6.4c-28.8 6.4-48 28.8-48 60.8 0 25.6 22.4 54.4 38.4 57.6l25.6 6.4v25.6c0 12.8 3.2 19.2 6.4 22.4s12.8 9.6 25.6 9.6c32 6.4 80 6.4 128 6.4s102.4 6.4 147.2 32c16 9.6 32 22.4 41.6 38.4zM832 480h32v-160h-32v160zM400 448c-25.6 0-48-22.4-48-48s22.4-48 48-48 48 22.4 48 48-22.4 48-48 48zM624 448c-25.6 0-48-22.4-48-48s22.4-48 48-48 48 22.4 48 48-22.4 48-48 48z" />
<glyph unicode="&#xe914;" glyph-name="services" d="M688 880v-44.8c-25.6-3.2-51.2-16-73.6-28.8l-32 32-44.8-48 32-28.8c-16-22.4-25.6-44.8-28.8-70.4h-44.8v-64h44.8c3.2-25.6 16-51.2 28.8-70.4l-35.2-32 44.8-44.8 32 35.2c22.4-16 44.8-25.6 70.4-28.8v-44.8h64v44.8c25.6 3.2 51.2 16 70.4 28.8l28.8-32 48 44.8-32 32c16 22.4 25.6 44.8 28.8 73.6h44.8v64h-44.8c-3.2 25.6-16 51.2-28.8 70.4l28.8 28.8-44.8 44.8-28.8-28.8c-22.4 16-44.8 25.6-70.4 28.8v38.4h-57.6zM720 774.4c67.2 0 118.4-51.2 118.4-118.4s-51.2-118.4-118.4-118.4-118.4 51.2-118.4 118.4 51.2 118.4 118.4 118.4zM304 585.6l-57.6-25.6 22.4-57.6c-32-19.2-57.6-44.8-73.6-73.6l-57.6 22.4-25.6-57.6 57.6-22.4c-3.2-16-6.4-35.2-6.4-54.4s3.2-35.2 6.4-54.4l-57.6-22.4 25.6-57.6 57.6 22.4c19.2-32 44.8-57.6 73.6-73.6l-22.4-57.6 57.6-25.6 22.4 57.6c16-3.2 35.2-6.4 54.4-6.4s35.2 3.2 54.4 6.4l22.4-57.6 57.6 25.6-22.4 57.6c28.8 19.2 54.4 44.8 73.6 73.6l57.6-22.4 25.6 57.6-57.6 22.4c3.2 16 6.4 35.2 6.4 54.4s-3.2 35.2-6.4 54.4l57.6 22.4-25.6 57.6-57.6-22.4c-19.2 28.8-44.8 54.4-73.6 73.6l22.4 57.6-57.6 25.6-22.4-57.6c-16 3.2-35.2 6.4-54.4 6.4s-35.2-3.2-54.4-6.4l-22.4 57.6zM380.8 470.4c86.4 0 153.6-67.2 153.6-153.6s-67.2-153.6-153.6-153.6-153.6 67.2-153.6 153.6 67.2 153.6 153.6 153.6z" />
<glyph unicode="&#xe915;" glyph-name="share" d="M512 832c-67.2 0-124.8-54.4-128-121.6-115.2-51.2-192-163.2-192-294.4 0-6.4 0-12.8 0-19.2-38.4-22.4-64-64-64-108.8 0-70.4 57.6-128 128-128 19.2 0 35.2 3.2 51.2 9.6 54.4-48 128-73.6 204.8-73.6s147.2 28.8 204.8 73.6c16-6.4 35.2-9.6 51.2-9.6 70.4 0 128 57.6 128 128 0 48-25.6 89.6-64 112 0 6.4 0 9.6 0 16 0 131.2-76.8 243.2-192 294.4-3.2 67.2-60.8 121.6-128 121.6zM512 768c35.2 0 64-28.8 64-64s-28.8-64-64-64-64 28.8-64 64 28.8 64 64 64zM400 646.4c22.4-41.6 64-70.4 112-70.4s92.8 28.8 112 70.4c86.4-41.6 144-128 144-230.4-70.4 0-128-57.6-128-128 0-28.8 9.6-54.4 25.6-76.8-41.6-32-99.2-51.2-153.6-51.2s-112 19.2-153.6 51.2c16 22.4 25.6 48 25.6 76.8 0 70.4-57.6 128-128 128 0 99.2 57.6 188.8 144 230.4zM256 352c35.2 0 64-28.8 64-64s-28.8-64-64-64-64 28.8-64 64 28.8 64 64 64zM768 352c35.2 0 64-28.8 64-64s-28.8-64-64-64-64 28.8-64 64 28.8 64 64 64z" />
<glyph unicode="&#xe916;" glyph-name="idea" d="M217.6 883.2l-44.8-44.8 67.2-67.2 44.8 44.8-67.2 67.2zM806.4 883.2l-67.2-67.2 44.8-44.8 67.2 67.2-44.8 44.8zM512 864c-9.6 0-22.4 0-32-3.2 0 0 0 0 0 0-131.2-16-233.6-118.4-249.6-249.6-16-102.4 25.6-198.4 96-259.2 32-25.6 48-60.8 57.6-96v-192h73.6c9.6-19.2 32-32 54.4-32s44.8 12.8 54.4 32h73.6v128h3.2v38.4c0 48 25.6 92.8 64 131.2 54.4 54.4 92.8 128 92.8 214.4 0 156.8-131.2 288-288 288zM512 800c124.8 3.2 224-99.2 224-224 0-67.2-32-124.8-73.6-169.6v0c-41.6-41.6-70.4-92.8-76.8-150.4h-140.8c-6.4 54.4-32 108.8-73.6 147.2-57.6 48-89.6 121.6-80 201.6 12.8 102.4 96 182.4 195.2 192 9.6 0 16 3.2 25.6 3.2zM64 576v-64h96v64h-96zM864 576v-64h96v64h-96zM240 316.8l-67.2-67.2 44.8-44.8 67.2 67.2-44.8 44.8zM784 316.8l-44.8-44.8 67.2-67.2 44.8 44.8-67.2 67.2zM448 192h128v-64h-128v64z" />
<glyph unicode="&#xe917;" glyph-name="cloud" d="M512 736c-83.2 0-156.8-38.4-211.2-99.2-3.2 3.2-9.6 3.2-12.8 3.2-70.4 0-128-57.6-128-128-54.4-35.2-96-89.6-96-160 0-105.6 86.4-192 192-192h512c105.6 0 192 86.4 192 192 0 102.4-80 182.4-179.2 188.8-38.4 112-144 195.2-268.8 195.2zM512 672c105.6 0 192-73.6 217.6-169.6l6.4-25.6h25.6c6.4 0 9.6 0 6.4 0 70.4 0 128-57.6 128-128s-57.6-128-128-128h-512c-70.4 0-128 57.6-128 128 0 54.4 32 99.2 76.8 118.4l22.4 12.8-3.2 22.4c0 6.4 0 9.6 0 9.6 0 35.2 28.8 64 64 64 3.2 0 9.6 0 16-3.2l19.2-6.4 12.8 16c41.6 54.4 105.6 89.6 176 89.6z" />
<glyph unicode="&#xe918;" glyph-name="news" d="M96 800v-576c0-70.4 57.6-128 128-128h576c70.4 0 128 57.6 128 128v352h-192v224h-640zM160 736h512v-512c0-22.4 6.4-44.8 19.2-64h-467.2c-38.4 0-64 25.6-64 64v512zM224 672v-160h384v160h-384zM288 608h256v-32h-256v32zM736 512h128v-288c0-38.4-25.6-64-64-64s-64 25.6-64 64v288zM224 480v-64h160v64h-160zM448 480v-64h160v64h-160zM224 384v-64h160v64h-160zM448 384v-64h160v64h-160zM224 288v-64h160v64h-160zM448 288v-64h160v64h-160z" />
<glyph unicode="&#xe919;" glyph-name="thumb-up" d="M534.4 864l-9.6-9.6-217.6-214.4h-147.2v-512h537.6c44.8 0 83.2 32 92.8 76.8l70.4 320c12.8 57.6-32 115.2-92.8 115.2h-185.6l6.4 25.6c6.4 6.4 9.6 6.4 19.2 19.2 16 19.2 32 51.2 32 92.8 0 48-41.6 86.4-92.8 86.4h-12.8zM556.8 796.8c12.8-3.2 19.2-6.4 19.2-19.2 0-28.8-9.6-48-16-57.6s-16-12.8-16-12.8l-9.6-6.4-3.2-12.8-19.2-73.6-9.6-38.4h265.6c22.4 0 35.2-19.2 32-38.4l-67.2-320c-3.2-16-16-25.6-32-25.6h-348.8v403.2l204.8 201.6zM224 576h64v-384h-64v384z" />
<glyph unicode="&#xe91a;" glyph-name="webinar" d="M96 800v-704h832v704h-832zM160 736h704v-576h-704v576zM512 640c-86.4 0-160-73.6-160-160 0-48 22.4-89.6 54.4-118.4-70.4-32-121.6-92.8-140.8-169.6h67.2c25.6 73.6 96 128 182.4 128s153.6-54.4 182.4-128h67.2c-19.2 73.6-73.6 137.6-140.8 169.6 32 28.8 54.4 70.4 54.4 118.4-6.4 86.4-80 160-166.4 160zM512 576c54.4 0 96-41.6 96-96s-41.6-96-96-96-96 41.6-96 96 41.6 96 96 96z" />
<glyph unicode="&#xe91b;" glyph-name="calendar" d="M288 832v-32h-128v-704h704v704h-128v32h-64v-32h-320v32h-64zM224 736h64v-32h64v32h320v-32h64v32h64v-64h-576v64zM224 608h576v-448h-576v448zM416 544v-64h64v64h-64zM544 544v-64h64v64h-64zM672 544v-64h64v64h-64zM288 416v-64h64v64h-64zM416 416v-64h64v64h-64zM544 416v-64h64v64h-64zM672 416v-64h64v64h-64zM288 288v-64h64v64h-64zM416 288v-64h64v64h-64zM544 288v-64h64v64h-64z" />
<glyph unicode="&#xe91c;" glyph-name="transform" d="M160 832l3.2-739.2c-3.2-16 9.6-28.8 22.4-28.8h460.8l217.6 224v544l-96-64-64 64-64-64-64 64-64-64-64 64-64-64-64 64-64-64-96 64zM320 745.6l22.4-22.4c9.6-9.6 25.6-16 41.6-16s32 6.4 41.6 19.2l22.4 19.2 22.4-22.4c9.6-9.6 25.6-16 41.6-16s32 6.4 41.6 19.2l22.4 19.2 22.4-22.4c9.6-9.6 25.6-16 41.6-16s32 6.4 41.6 19.2l22.4 19.2 22.4-22.4c9.6-9.6 25.6-16 41.6-16 12.8 0 22.4 3.2 32 9.6v-428.8h-192v-32h32v-32h-32v-32h32v-64h-416v588.8c9.6-6.4 22.4-9.6 32-9.6 16 0 32 6.4 41.6 19.2l22.4 19.2zM256 672v-64h512v64h-512zM256 544v-288h288v288h-288zM608 544v-32h160v32h-160zM608 480v-32h160v32h-160zM608 416v-32h160v32h-160zM608 352v-32h160v32h-160zM256 224v-32h288v32h-288z" />
<glyph unicode="&#xe91d;" glyph-name="arrow-down" d="M972 649.5l-57.5 57.5-402.5-402.5-402.5 402.5-57.5-57.5 459.998-460z" />
<glyph unicode="&#xe91e;" glyph-name="arrow-up" d="M52 247l57.5-57.5 402.5 402.5 402.5-402.5 57.5 57.5-459.998 460z" />
<glyph unicode="&#xe91f;" glyph-name="books" d="M160 800v-704h704v704h-288v-96h-128v96h-288zM224 736h160v-96h-128v-64h128v-288h-128v-64h128v-64h-160v576zM640 736h160v-96h-128v-64h128v-288h-128v-64h128v-64h-160v576zM448 640h128v-64h-96v-64h96v-224h-96v-64h96v-64h-128v480z" />
</font>
</defs>
</svg>
