<?xml version="1.0" encoding="utf-8"?>
<!-- Generator: Adobe Illustrator 16.0.0, SVG Export Plug-In . SVG Version: 6.00 Build 0)  -->
<!DOCTYPE svg PUBLIC "-//W3C//DTD SVG 1.1//EN" "http://www.w3.org/Graphics/SVG/1.1/DTD/svg11.dtd">
<svg version="1.1" id="Layer_1" xmlns="http://www.w3.org/2000/svg" xmlns:xlink="http://www.w3.org/1999/xlink" x="0px" y="0px"
	 width="34.3px" height="58.8px" viewBox="34.1 12.2 34.3 58.8" enable-background="new 34.1 12.2 34.3 58.8" xml:space="preserve">
<path fill="#FFFFFF" fill-opacity="0.5" d="M52.9,12.3L52.9,12.3l-3.3,0v0c-8.7,0.8-15.5,8.2-15.5,17.1l0,24.6c0,9.5,7.7,17.1,17.1,17.1
	c9.5,0,17.1-7.7,17.1-17.1V29.4C68.4,20.4,61.6,13.1,52.9,12.3z M65.2,53.9c0,7.7-6.2,13.9-13.9,13.9c-7.7,0-13.9-6.2-13.9-13.9
	V29.4c0-7.7,6.2-13.9,13.9-13.9c7.7,0,13.9,6.2,13.9,13.9L65.2,53.9z"/>
</svg>
